<svg xmlns="http://www.w3.org/2000/svg" viewBox="0 0 125.69 135.28"><defs><style>.cls-1{opacity:0.03;}.cls-2{fill:#fff;}</style></defs><title>letter</title><g id="Layer_2" data-name="Layer 2"><g id="Layer_4" data-name="Layer 4"><g class="cls-1"><path class="cls-2" d="M9.91,54.25l-.47-1.38c-.3-.9-.76-2.21-1.29-3.9S7,45.23,6.3,42.86s-1.4-5.07-2-8.05a90.71,90.71,0,0,1-1.52-9.72A32.24,32.24,0,0,1,3.39,14,19,19,0,0,1,5.74,8.54,17.36,17.36,0,0,1,7.56,6.08,11,11,0,0,1,10,4a6.25,6.25,0,0,1,3.2-1,5.69,5.69,0,0,1,3.24,1l.34.24.32.26c.11.1.2.16.33.28l.27.26a9.66,9.66,0,0,1,1.05,1.3A13.32,13.32,0,0,1,20.14,9.3a30.09,30.09,0,0,1,.87,3,24.38,24.38,0,0,1,.42,3.09,53.48,53.48,0,0,1,.16,6.09,30.66,30.66,0,0,1-.72,6,12,12,0,0,1-1.06,2.89,5.81,5.81,0,0,1-1,1.32,5.31,5.31,0,0,1-.68.54,3.35,3.35,0,0,1-.81.35l-.43.11c-.14,0-.29,0-.44,0a3,3,0,0,1-.84-.08,3.56,3.56,0,0,1-.77-.23c-.12,0-.25-.09-.37-.14l-.34-.18a9.7,9.7,0,0,1-1.26-.79l-.08-.05-.07-.06,0,0L12.58,31l-.26-.23c-.09-.08-.17-.15-.26-.23l-.26-.29a8.37,8.37,0,0,1-1.54-2.48,12.24,12.24,0,0,1-.77-2.65,16.36,16.36,0,0,1,0-5.21,10.94,10.94,0,0,1,1.65-4.62,3.47,3.47,0,0,1,2-1.44l.16,0h.16l.27,0a3.17,3.17,0,0,1,.63,0,2.5,2.5,0,0,1,1.11.48,3.7,3.7,0,0,1,1.21,1.84,7.61,7.61,0,0,1,.33,2,10,10,0,0,1-.48,3.49,5.2,5.2,0,0,1-.71,1.42,3.27,3.27,0,0,1-.26.29c-.09.08-.16.17-.26.25a2.61,2.61,0,0,1-.6.4,1,1,0,0,1-.73.07,1,1,0,0,1-.53-.42A2.91,2.91,0,0,1,13,22.57a7.38,7.38,0,0,1-.1-1.76,4.43,4.43,0,0,1,.26-1.43A4.4,4.4,0,0,0,13,20.82a7.25,7.25,0,0,0,.19,1.71,2.77,2.77,0,0,0,.41,1,.76.76,0,0,0,.41.31.77.77,0,0,0,.53-.08,2.33,2.33,0,0,0,.51-.37c.08-.07.16-.16.24-.25a2.94,2.94,0,0,0,.21-.26,4.84,4.84,0,0,0,.6-1.34,9.54,9.54,0,0,0,.32-3.33A7,7,0,0,0,16,16.4a3,3,0,0,0-1-1.45,1.85,1.85,0,0,0-.81-.31,2.49,2.49,0,0,0-.43,0l-.27,0h-.1l-.11,0a2.66,2.66,0,0,0-1.49,1.16,7.47,7.47,0,0,0-.9,2,13.78,13.78,0,0,0-.47,2.28A15.33,15.33,0,0,0,10.59,25a11.1,11.1,0,0,0,.76,2.39,3.91,3.91,0,0,0,.28.56c.1.18.2.37.31.54a7,7,0,0,0,2.8,2.48,3.06,3.06,0,0,0,2.22.38,2.92,2.92,0,0,0,1.63-1.58,10.67,10.67,0,0,0,.89-2.56,31.7,31.7,0,0,0,.63-5.73,52,52,0,0,0-.18-5.92,23,23,0,0,0-.4-2.9c-.23-.93-.5-1.91-.82-2.81a11.83,11.83,0,0,0-1.24-2.56,8.36,8.36,0,0,0-.85-1.06l-.27-.26c-.05-.06-.17-.14-.25-.21l-.26-.22-.28-.19a4.2,4.2,0,0,0-2.4-.8,4.79,4.79,0,0,0-2.45.76A9.77,9.77,0,0,0,8.63,7a15.94,15.94,0,0,0-1.7,2.24,17.6,17.6,0,0,0-2.25,5.07A32.7,32.7,0,0,0,3.87,25a89.7,89.7,0,0,0,1.25,9.65c.55,3,1.15,5.68,1.72,8.07S8,47.18,8.43,48.89Z"/><path class="cls-2" d="M6.58,117.44s0,.63.06,1.8a14.82,14.82,0,0,0,.26,2.13A7.51,7.51,0,0,0,8,124a5,5,0,0,0,2.79,2,3.15,3.15,0,0,0,1.89-.09l.12,0,0,0,.06,0,.24-.13a3.33,3.33,0,0,0,.4-.29,3.45,3.45,0,0,0,.7-.78,9.17,9.17,0,0,0,1.21-4.49,25.84,25.84,0,0,0-.13-5.29,24.79,24.79,0,0,0-1.38-5.56,7,7,0,0,0-1.47-2.45,4,4,0,0,0-2.5-1.16,5.72,5.72,0,0,0-2.89.51,5.79,5.79,0,0,0-1.29.81,7.92,7.92,0,0,0-1.09,1.09A11.9,11.9,0,0,0,3,110.89c-.22.5-.42,1-.59,1.56A16.29,16.29,0,0,0,2,114.08,25.6,25.6,0,0,0,1.44,121a20.88,20.88,0,0,0,1.5,6.88A9.63,9.63,0,0,0,7.41,133a8.66,8.66,0,0,0,3.32.82,3.93,3.93,0,0,0,.42,0l.41,0c.28,0,.56-.07.84-.12a8.76,8.76,0,0,0,1.64-.52,9.32,9.32,0,0,0,2.86-1.92,8.5,8.5,0,0,0,.59-.64c.09-.11.2-.23.26-.32l.28-.38c.19-.26.31-.48.47-.72s.3-.51.42-.78a20.21,20.21,0,0,0,1.77-6.92A102.27,102.27,0,0,0,21,107.1a153.65,153.65,0,0,0-3.61-25.27c-.82-3.66-1.63-7-2.39-10s-1.55-5.49-2.14-7.6L11,57.64l2.14,6.55c.66,2.09,1.5,4.61,2.4,7.53S17.3,78,18.19,81.63s1.76,7.64,2.5,11.9A123.22,123.22,0,0,1,22.3,107a97.85,97.85,0,0,1-.15,14.57A21.62,21.62,0,0,1,20.27,129c-.14.3-.31.58-.47.87s-.37.6-.55.84l-.28.38c-.12.16-.22.27-.33.41a10,10,0,0,1-.68.74,10.76,10.76,0,0,1-3.33,2.25,9.24,9.24,0,0,1-4,.76,10.16,10.16,0,0,1-3.9-1,9.5,9.5,0,0,1-3.14-2.49,13.25,13.25,0,0,1-2-3.35A21.62,21.62,0,0,1,0,121.08a27,27,0,0,1,.62-7.29A17.8,17.8,0,0,1,1.14,112c.2-.59.41-1.13.66-1.68a12.5,12.5,0,0,1,1.89-3.05A9,9,0,0,1,5,106.06a7,7,0,0,1,1.54-.92A6.85,6.85,0,0,1,10,104.6a5.09,5.09,0,0,1,3.12,1.53A8,8,0,0,1,14.8,109a25.66,25.66,0,0,1,1.32,5.81,25.28,25.28,0,0,1,0,5.46A9.76,9.76,0,0,1,14.66,125a4,4,0,0,1-.83.86,3.8,3.8,0,0,1-.5.33l-.24.12-.06,0-.08,0-.14,0a3.6,3.6,0,0,1-2.16,0,5.32,5.32,0,0,1-2.93-2.23,7.41,7.41,0,0,1-1-2.78,15,15,0,0,1-.17-2.16C6.55,118.07,6.58,117.44,6.58,117.44Z"/><polygon class="cls-2" points="6.21 118.16 16.11 117.44 16.14 118.45 6.21 118.16"/><path class="cls-2" d="M21.16,107.65a26,26,0,0,1-10.15-2l.2-.47a25.46,25.46,0,0,0,10.64,2l0,.51Z"/><path class="cls-2" d="M12.09,135.06l1.75-.79c1.13-.53,2.83-1.24,5-2.06l1.74-.61c.61-.22,1.25-.43,1.93-.63l2.1-.65,2.28-.61a91.33,91.33,0,0,1,10.74-2.11A118.19,118.19,0,0,1,65,127.25c2.49.25,5,.54,7.56.57a20.82,20.82,0,0,0,7.52-1.08,11.79,11.79,0,0,0,3.31-1.84l.38-.29.35-.33c.22-.22.47-.44.68-.66l.33-.37.29-.37c.18-.25.37-.51.54-.78a19.44,19.44,0,0,0,2.35-7.36c.17-1.32.38-2.65.44-4s.11-2.63.14-3.95A68.55,68.55,0,0,0,88.37,99a117.7,117.7,0,0,0-2.94-15.08c-1.24-4.84-2.58-9.48-3.84-13.9s-2.52-8.55-3.75-12.36-2.35-7.31-3.27-10.43-1.69-5.86-2.25-8.13-.94-4.07-1.18-5.29l-.36-1.89.41,1.87c.27,1.22.71,3,1.32,5.26s1.42,5,2.42,8.06,2.19,6.56,3.46,10.36q1,2.85,2,5.94c.66,2.06,1.31,4.2,2,6.4,1.32,4.39,2.73,9,4,13.89a118.57,118.57,0,0,1,3,15.18,69.52,69.52,0,0,1,.57,8c0,1.34,0,2.68-.12,4s-.25,2.68-.43,4a28.34,28.34,0,0,1-.87,4,15.48,15.48,0,0,1-1.66,3.76c-.18.3-.38.58-.59.86l-.33.42-.33.37c-.25.26-.5.48-.75.72l-.38.35-.41.31a12.74,12.74,0,0,1-3.58,2,21.72,21.72,0,0,1-7.86,1.11c-2.61,0-5.15-.35-7.63-.61a135,135,0,0,0-14.36-.75,110.83,110.83,0,0,0-12.86.78A101.32,101.32,0,0,0,27,130.06l-2.29.56-2.11.6c-.68.19-1.32.38-1.93.59l-1.75.58c-2.2.78-3.92,1.42-5.06,1.93Z"/><path class="cls-2" d="M16.32,32.27,17.2,32c.58-.18,1.42-.45,2.5-.77s2.4-.7,3.92-1.1,3.26-.81,5.17-1.13c1-.17,2-.31,3-.44s2.13-.21,3.23-.29a56.33,56.33,0,0,1,7,0c4.85.29,10,1.08,15.07,1.81l3.81.56,3.8.51c2.52.37,5,.77,7.36.93a31.53,31.53,0,0,0,3.5,0,17.07,17.07,0,0,0,3.28-.52,12.1,12.1,0,0,0,1.5-.53l.36-.15c.08,0,.22-.12.33-.18a7.76,7.76,0,0,0,.67-.4,7.61,7.61,0,0,0,2-2.06,13.29,13.29,0,0,0,1.78-4.82,23.8,23.8,0,0,0,.36-4c0-1.12,0-2-.07-2.61l-.07-.92.13.92c.07.6.17,1.48.21,2.61a24.09,24.09,0,0,1-.18,4.08,12.91,12.91,0,0,1-1.67,5.07,8.14,8.14,0,0,1-2.11,2.31c-.22.17-.45.28-.67.42s-.2.13-.37.21l-.38.17a12.78,12.78,0,0,1-1.57.6,17.83,17.83,0,0,1-3.43.64A27.36,27.36,0,0,1,72,33c-2.44-.14-4.93-.53-7.43-.87l-3.8-.47L57,31.1c-5.1-.78-10.18-1.61-15-1.94-2.39-.16-4.73-.25-6.91-.17a56.59,56.59,0,0,0-6.19.56,92.54,92.54,0,0,0-9.13,1.86Z"/><path class="cls-2" d="M13.77,3.35l2.72.83c.43.13.91.29,1.43.43l1.7.44,1.93.51c.69.16,1.41.31,2.17.48s1.54.35,2.36.5L28.63,7c.44.07.88.16,1.33.23l1.37.19c.92.12,1.86.26,2.82.37,1.93.18,3.91.41,5.94.49s4.09.14,6.16.18,4.13-.06,6.16-.22,4-.33,5.95-.52c1-.12,1.9-.26,2.83-.39l1.37-.19c.45-.07.89-.16,1.33-.24l2.54-.46c.82-.16,1.6-.35,2.36-.51s1.48-.33,2.17-.49l1.94-.52,1.7-.46c.52-.15,1-.31,1.43-.44l2.71-.84L76,4c-.43.13-.91.3-1.43.45l-1.7.47L71,5.48c-.69.17-1.41.33-2.17.51s-1.54.37-2.36.53L63.9,7c-.44.08-.88.17-1.33.25l-1.37.2c-.92.13-1.86.29-2.83.41-1.93.2-3.92.46-6,.57s-4.1.19-6.17.26-4.14,0-6.17-.14-4-.28-6-.44c-1-.1-1.91-.24-2.84-.35L29.9,7.59c-.45-.06-.9-.15-1.33-.22L26,6.94c-.82-.14-1.61-.33-2.37-.49S22.15,6.14,21.45,6l-2-.49-1.72-.43c-.53-.14-1-.29-1.44-.42l-2.72-.81Z"/><polygon class="cls-2" points="13.38 19.68 16.67 19.42 16.67 19.93 13.38 19.68"/><path class="cls-2" d="M14.77,23.86a7.69,7.69,0,0,1,.83-.39,8.48,8.48,0,0,1,2-.53,8.57,8.57,0,0,1,2.06,0,7.91,7.91,0,0,1,.93.15l-.13.49a7.46,7.46,0,0,0-.87-.22,8.22,8.22,0,0,0-2-.13,8.32,8.32,0,0,0-2,.35A7.67,7.67,0,0,0,14.77,23.86Z"/><polygon class="cls-2" points="13.37 14.22 20.91 14.43 20.81 15.44 13.37 14.22"/><path class="cls-2" d="M78.94,16.13c1.4-.18,2.8-.3,4.2-.41s2.8-.2,4.2-.26l-.43.51a37.91,37.91,0,0,0-.85-4.18c-.18-.69-.36-1.38-.59-2a16.2,16.2,0,0,0-.78-1.94,8.81,8.81,0,0,0-.5-.9,9.2,9.2,0,0,0-.59-.84,7.73,7.73,0,0,0-.69-.75,9,9,0,0,0-.81-.66,9.4,9.4,0,0,0-1.85-1,5.64,5.64,0,0,0-2.08-.45,5,5,0,0,1,2.18.11,8.27,8.27,0,0,1,2.06.82,7.56,7.56,0,0,1,.93.62,8.37,8.37,0,0,1,.84.78,7.79,7.79,0,0,1,.71.88,9.68,9.68,0,0,1,.59,1,12.79,12.79,0,0,1,.9,2c.24.7.45,1.41.63,2.11a28.73,28.73,0,0,1,.77,4.32l0,.5h-.48c-1.4,0-2.81,0-4.21,0S80.35,16.23,78.94,16.13Z"/><path class="cls-2" d="M10.14,54.37c.44,0,.87.11,1.3.17l1.29.22q1.29.24,2.56.54l.68.16-.62.31c-.7.35-1.41.69-2.12,1l-1.08.46c-.37.14-.73.3-1.1.42.32-.22.66-.42,1-.63l1-.59c.68-.39,1.37-.75,2.07-1.11l.06.47q-1.28-.29-2.54-.64l-1.26-.37C11,54.65,10.55,54.53,10.14,54.37Z"/><polygon class="cls-2" points="18.68 56.74 15.15 55.79 15.32 55.32 18.68 56.74"/><polygon class="cls-2" points="78.53 116.65 88.67 114.42 88.89 115.92 78.53 116.65"/><polygon class="cls-2" points="85.3 112.8 89.06 110.7 89.28 111.15 85.3 112.8"/><polygon class="cls-2" points="29.56 83.36 18.5 84.65 18.43 83.64 29.56 83.36"/><path class="cls-2" d="M20.46,42.86a7.82,7.82,0,0,0,1.4-2.68,1.43,1.43,0,0,1,.69,1.32l1.25-1.06a6.91,6.91,0,0,0,3,4.9L30,34.41,33.13,48c.46,2,1,4.19,2.52,5.61a33.78,33.78,0,0,1,2-12.75l1.26,2.81,1.6-3.53a3.39,3.39,0,0,0,1.28,1.85l1.41-1.17c1.33,1,3.16,1,4.82.86l18.33-1.06Z"/><path class="cls-2" d="M20.46,42.86a7.8,7.8,0,0,0,1.37-2.69v0l0,0a1.47,1.47,0,0,1,.72,1.36l-.08,0,1.24-1.07.09-.08,0,.13a6.74,6.74,0,0,0,1,2.73,6.87,6.87,0,0,0,.9,1.14,6.72,6.72,0,0,0,1.12.92l-.2.07,3.17-11,.21-.73.17.74,2.27,9.81.56,2.45c.19.82.37,1.64.58,2.45a13.62,13.62,0,0,0,.8,2.34,6.28,6.28,0,0,0,1.38,2l-.42.19a31.89,31.89,0,0,1,0-3.27q.1-1.63.35-3.25a33.94,33.94,0,0,1,1.63-6.32l.19-.54.23.52,1.26,2.81h-.41L40.29,40l.25-.55.16.58a3.2,3.2,0,0,0,1.2,1.73h-.26l1.41-1.16.12-.1.12.09a4.82,4.82,0,0,0,2.63.86,24.4,24.4,0,0,0,2.9-.06l5.83-.3,11.67-.55-11.66.8-5.83.37a24.62,24.62,0,0,1-2.94.09,5.19,5.19,0,0,1-2.85-.91h.25l-1.4,1.18-.12.1-.13-.09a3.58,3.58,0,0,1-1.37-2l.41,0-1.6,3.54-.2.45-.2-.45-1.27-2.81.43,0a33.47,33.47,0,0,0-1.58,6.24q-.24,1.59-.33,3.2c0,.54,0,1.07-.05,1.61s0,1.07,0,1.61l0,.61-.44-.42A6.77,6.77,0,0,1,34,51.62a14.1,14.1,0,0,1-.82-2.42c-.21-.82-.38-1.64-.57-2.46l-.55-2.46-2.21-9.83h.38l-3.3,10.91-.05.17-.14-.1a7,7,0,0,1-3-5l.11,0-1.26,1-.09.08v-.12a1.39,1.39,0,0,0-.66-1.29l0,0A7.83,7.83,0,0,1,20.46,42.86Z"/><path class="cls-2" d="M38.91,49.05l2.17-.11c.72,0,1.44-.12,2.16-.18s1.43-.16,2.15-.25,1.42-.22,2.13-.33,1.42-.25,2.12-.4a7.93,7.93,0,0,1,2.21-.29,5.72,5.72,0,0,1,1.1.24,3.32,3.32,0,0,0,.5.1,2.91,2.91,0,0,0,2.3-.75l1.49-1.4-1.14,1.69c-.06.09,0,.19.07.32a.7.7,0,0,0,.42.22h.11l.14,0,.27-.09c.18-.08.37-.19.57-.29a2.54,2.54,0,0,1,.66-.24,3,3,0,0,1,.69-.05c.46,0,.88.1,1.31.14a25.29,25.29,0,0,0,2.59.16,24.73,24.73,0,0,0,2.6-.13,19.31,19.31,0,0,1-2.6.32,19.06,19.06,0,0,1-2.63,0c-.43,0-.87-.09-1.29-.09a2.63,2.63,0,0,0-.6.07,2.14,2.14,0,0,0-.55.23c-.18.1-.37.21-.59.31a2.08,2.08,0,0,1-.35.12l-.18,0h-.21a1.14,1.14,0,0,1-.71-.36.83.83,0,0,1-.21-.39.66.66,0,0,1,.09-.48l.35.29a3.39,3.39,0,0,1-2.69.91,3.84,3.84,0,0,1-.56-.11,5.87,5.87,0,0,0-1-.23,7.56,7.56,0,0,0-2.08.25q-1.07.21-2.15.38c-1.43.22-2.88.35-4.33.44-.72,0-1.45.06-2.17.06S39.64,49.09,38.91,49.05Z"/><path class="cls-2" d="M20.7,52.11a27.3,27.3,0,0,1,3.19-.77,32.79,32.79,0,0,1,3.26-.44l-.22.19c.16-.64.33-1.29.5-1.93l.18-.65.27.62.11.24c0,.07.09.15.14.22a2.27,2.27,0,0,0,.18.19,2.07,2.07,0,0,0,.21.17,2.19,2.19,0,0,0,.49.26,3.09,3.09,0,0,0,.55.16,7.23,7.23,0,0,0,1.17.12c.4,0,.8,0,1.2,0a7.5,7.5,0,0,1-1.19.23,5.08,5.08,0,0,1-1.23,0,3.42,3.42,0,0,1-.62-.12,2.57,2.57,0,0,1-.6-.25,1.77,1.77,0,0,1-.27-.19,2.64,2.64,0,0,1-.24-.24c-.07-.09-.13-.18-.2-.28l-.15-.3.45,0c-.15.65-.31,1.29-.47,1.94l0,.18h-.18c-1.08.08-2.16.2-3.24.31l-1.62.19Z"/><path class="cls-2" d="M23.91,59.94l1.88-.76c.6-.24,1.33-.53,2.18-.82a15.39,15.39,0,0,1,2.94-.74l1.71-.22,1.83-.19,4-.41L47,56l8.61-.78c2.75-.25,5.31-.44,7.51-.63l5.32-.41,2-.14-2,.24-5.3.59c-2.19.23-4.75.52-7.5.78l-8.6.84-8.61.77-4,.34-1.84.15-1.71.18a17.11,17.11,0,0,0-2.92.63c-.86.26-1.59.52-2.2.73Z"/><path class="cls-2" d="M27.67,69.88a8.25,8.25,0,0,0,4.55-2.77l.09-.1,0,.14a7.66,7.66,0,0,1-.17,3.15l-.08-.12a1.68,1.68,0,0,0,1.27-.43c.38-.29.71-.65,1.06-1q1-1,2.08-2.07,2.06-2.09,4-4.27l.48-.53-.16.69-2,8.84-1,4.42a9.81,9.81,0,0,1-.3,1.12A5.54,5.54,0,0,1,37,78a2.8,2.8,0,0,1-.83.9,1.61,1.61,0,0,1-1.27.22l-.2-.05,0-.2a5.35,5.35,0,0,1,.24-1.16,5.91,5.91,0,0,1,.48-1.08,12.1,12.1,0,0,1,1.34-1.88c.49-.59,1-1.14,1.46-1.72q.36-.43.67-.89c.2-.3.41-.63.58-.95.72-1.3,1.23-2.72,1.89-4.1.17-.34.33-.69.53-1a9.43,9.43,0,0,1,.62-1,7.7,7.7,0,0,1,.75-.89c.14-.13.28-.27.43-.4l.46-.36.7-.55-.37.82a14.09,14.09,0,0,0-1.23,5.91l-.35-.15,3-2.77.47-.44-.17.63a.76.76,0,0,0,.13.65,1.3,1.3,0,0,0,.58.45,1.33,1.33,0,0,0,.74.07,2.57,2.57,0,0,0,.75-.25,14.19,14.19,0,0,0,1.41-.89l1.4-.94,1.4-.94c.47-.31.92-.64,1.43-.91a2.76,2.76,0,0,1,.82-.29,1.45,1.45,0,0,1,.88.1,1.42,1.42,0,0,1,.63.62.88.88,0,0,1,0,.88l-.35.54.22-.61.48-1.32,0-.08.07.06A6.28,6.28,0,0,0,59,65.31a8.24,8.24,0,0,0,2.56.4A8.27,8.27,0,0,1,59,65.36a6.37,6.37,0,0,1-2.31-1.21l.1,0-.45,1.33-.13-.06a.72.72,0,0,0,0-.72,1.18,1.18,0,0,0-1.33-.6,2.54,2.54,0,0,0-.75.28c-.48.26-.93.61-1.39.93l-1.39,1-1.39,1a14.33,14.33,0,0,1-1.43.93,2.89,2.89,0,0,1-.84.29,1.67,1.67,0,0,1-.92-.08,1.64,1.64,0,0,1-.74-.56,1.13,1.13,0,0,1-.2-.95l.3.18-2.92,2.8-.34.33v-.48a14.42,14.42,0,0,1,1.24-6.1l.33.28-.43.34c-.14.12-.26.25-.4.37a7.23,7.23,0,0,0-.7.84,9,9,0,0,0-.59.94c-.19.32-.35.66-.51,1-.64,1.35-1.14,2.78-1.88,4.14-.19.35-.38.66-.6,1s-.45.63-.69.92c-.48.59-1,1.16-1.47,1.73a11.61,11.61,0,0,0-1.29,1.8,5.42,5.42,0,0,0-.44,1,4.87,4.87,0,0,0-.22,1L35,78.67a1.12,1.12,0,0,0,.9-.15,2.35,2.35,0,0,0,.69-.75,5.07,5.07,0,0,0,.46-1,9.34,9.34,0,0,0,.29-1.07l1-4.41,2.11-8.82.32.17q-2,2.16-4.09,4.23-1,1-2.11,2a13.3,13.3,0,0,1-1.11,1,2.65,2.65,0,0,1-.67.37,1.48,1.48,0,0,1-.77.07l-.11,0,0-.1a7.5,7.5,0,0,0,.23-3.08l.11,0A8.31,8.31,0,0,1,27.67,69.88Z"/><path class="cls-2" d="M63.91,64.79l.29-.17c.18-.1.45-.25.78-.39a9.8,9.8,0,0,1,1.17-.43A10.77,10.77,0,0,1,69,63.36a9.73,9.73,0,0,1,1.24,0c.36,0,.66.09.87.13l.32.07-1.19.09c-.71.05-1.65.15-2.58.3s-1.85.35-2.54.52Z"/><path class="cls-2" d="M43.63,78.47,46.07,78l2.44-.46,2.44-.44c.81-.15,1.63-.28,2.45-.42,1.63-.28,3.27-.52,4.86-.9a10.63,10.63,0,0,0,4.38-2l.07-.06h.09a31.12,31.12,0,0,0,4,0c.67,0,1.35-.07,2-.14s1.34-.13,2-.23c-.66.16-1.32.28-2,.38s-1.34.19-2,.26a30.19,30.19,0,0,1-4.08.15l.15,0a9.29,9.29,0,0,1-2.15,1.34,14.82,14.82,0,0,1-2.39.81c-.81.21-1.63.35-2.45.48l-2.45.38c-.82.12-1.63.26-2.45.37l-2.46.35-2.46.33Z"/><path class="cls-2" d="M35.84,88.58a4.5,4.5,0,0,1,.41-.2A6.06,6.06,0,0,1,37.51,88c.55-.1,1.23-.16,2-.23l2.59-.25c.95-.1,2-.22,3.06-.37s2.22-.32,3.4-.5c2.36-.36,4.86-.81,7.36-1.28L63.27,84c2.35-.44,4.54-.81,6.42-1.14s3.45-.58,4.55-.77L76,81.86l-1.71.38c-1.09.23-2.64.57-4.52,1s-4.05.84-6.4,1.29L56,85.9c-2.51.45-5,.87-7.39,1.22s-4.59.56-6.49.72c-1,.08-1.83.12-2.6.15s-1.45.06-2,.14a6.63,6.63,0,0,0-1.25.29A4.49,4.49,0,0,0,35.84,88.58Z"/><path class="cls-2" d="M31.51,95.77l2-.17,5.25-.42,7.43-.53,4.19-.27c1.43-.08,2.87-.21,4.32-.33l2.17-.16c.71-.05,1.44-.16,2.17-.16a8.14,8.14,0,0,1,2.16.3,10.45,10.45,0,0,0,2,.37A10.46,10.46,0,0,0,67,93.76c1.18-.39,2.26-.85,3.3-1.22a13.23,13.23,0,0,1,2.91-.7,7.5,7.5,0,0,1,2.3.07,5.2,5.2,0,0,1,1.4.49l.45.27-.46-.25a5.47,5.47,0,0,0-1.4-.42,7.36,7.36,0,0,0-2.26,0,14.49,14.49,0,0,0-2.84.78c-1,.38-2.09.87-3.28,1.3a10.2,10.2,0,0,1-3.92.72c-1.42-.06-2.73-.7-4.12-.63-.7,0-1.4.11-2.13.17l-2.17.17c-1.45.1-2.9.22-4.33.29l-4.19.24-7.44.38-5.26.23Z"/><path class="cls-2" d="M32.93,104.77l1.38-.25c.88-.15,2.14-.38,3.65-.62s3.27-.54,5.17-.82l5.93-.88c2-.28,4.05-.55,6-.69a26.75,26.75,0,0,1,2.77-.08l2.47.11c.76,0,1.47.07,2.09.12l1.61.12,1.4.11-5.1-.08-2.47,0c-.86,0-1.79.07-2.73.14-1.9.16-3.91.45-5.93.75l-5.94.82c-1.9.26-3.67.47-5.19.66s-2.79.33-3.67.43Z"/><path class="cls-2" d="M72.64,101a2.09,2.09,0,0,1,.38-.23,4,4,0,0,1,1.79-.4,2.07,2.07,0,0,1,.44.05,2.07,2.07,0,0,1-.38.23,4,4,0,0,1-1.79.4A2.09,2.09,0,0,1,72.64,101Z"/><path class="cls-2" d="M36.79,109.91l.69-.19c.41-.1.95-.24,1.48-.39s1.06-.31,1.47-.44.69-.2.69-.2a3.28,3.28,0,0,1-.57.46,5.2,5.2,0,0,1-1.45.66,6,6,0,0,1-.84.16,4.61,4.61,0,0,1-.75,0A3.26,3.26,0,0,1,36.79,109.91Z"/><path class="cls-2" d="M48.65,108.09a1.13,1.13,0,0,1,.25-.19,1.75,1.75,0,0,1,1.19-.21,1.12,1.12,0,0,1,.3.1,1.12,1.12,0,0,1-.25.19,1.75,1.75,0,0,1-1.19.21A1.12,1.12,0,0,1,48.65,108.09Z"/><path class="cls-2" d="M54.47,107.57l.22-.11c.14-.07.35-.17.62-.29a11.33,11.33,0,0,1,2.37-.65,29.05,29.05,0,0,1,3.45-.32c1.26-.06,2.61-.1,4-.15s2.69-.07,4-.09,2.44,0,3.45,0,1.85,0,2.44,0l.93,0-.92.08c-.59,0-1.43.11-2.44.17s-2.18.13-3.45.18-2.61.1-4,.15-2.69.07-4,.09-2.43,0-3.43.16a13.2,13.2,0,0,0-2.37.46C54.78,107.44,54.47,107.57,54.47,107.57Z"/><path class="cls-2" d="M120.24,126.34c-.27-1.19-.53-2.39-.78-3.58s-.47-2.4-.69-3.6-.43-2.41-.61-3.62q-.15-.91-.27-1.82l-.26-1.82c-.14-1.22-.32-2.43-.44-3.65-.09-.77-.16-1.55-.23-2.32.26-1.74.61-4,1-6.16.69-4.12,6.42-11.91,6.42-11.91a41.93,41.93,0,0,1-1.6-9.16c0-3.67.92-17,1.15-28S122.52,34,122.52,34l-3.21,2.52L123,30.12s-.92-8.71-2.06-15.12a27.56,27.56,0,0,0-5-11.23c5.27,8.71,3.9,18.56,2.75,26.35a360.49,360.49,0,0,0-2.75,41.47c-.23,17.41.69,37.12.69,37.12l.09-.62v.2c.05,1.23.16,2.46.27,3.68l.19,1.84q.09.92.22,1.83c.15,1.22.34,2.44.53,3.66s.42,2.43.66,3.64c.11.61.25,1.21.37,1.81s.27,1.2.41,1.8l.16.65q-2.09-3.35-4.23-6.67,0-2-.12-4c0-1.37-.09-2.75-.16-4.12-.07,1.37-.12,2.75-.17,4.12s-.1,2.75-.13,4.12v.07l0,.08c1.83,3.18,3.7,6.34,5.58,9.48l1.76,2.95-.93-3.32C120.8,128.72,120.51,127.53,120.24,126.34Zm1-54.91c.12-1.5.28-3,.45-4.6s.38-3.15.53-4.74a90.66,90.66,0,0,0,.45-9.35c0-3-.1-5.78-.25-8.17-.08-1.19-.16-2.29-.17-3.27s0-1.82-.07-2.52-.09-1.24-.14-1.61l-.08-.57.11.56c.06.37.15.91.2,1.61s.11,1.55.16,2.52.16,2.06.26,3.26c.19,2.39.38,5.19.4,8.19a91.12,91.12,0,0,1-.39,9.4c-.17,1.6-.38,3.18-.57,4.74s-.36,3.1-.48,4.59-.21,2.93-.25,4.3,0,2.66.08,3.85.23,2.28.39,3.23a24.35,24.35,0,0,0,.56,2.45c.17.68.37,1.19.49,1.54l.19.54-.21-.53a15.54,15.54,0,0,1-.55-1.53,24.46,24.46,0,0,1-.65-2.44c-.09-.48-.2-1-.28-1.53s-.17-1.11-.2-1.71c-.12-1.2-.17-2.5-.17-3.88S121.09,72.93,121.22,71.43Z"/><path class="cls-2" d="M125.33,95.21a2.63,2.63,0,0,0-.24-.28l-.12-.11-.06-.05-.09-.07a2.22,2.22,0,0,0-.7-.34,2.58,2.58,0,0,0-1.66.11,4.23,4.23,0,0,0-1.42.94A8.42,8.42,0,0,0,120,96.72l-.21.34-.05.09,0,.05,0,0-.1.19c-.14.25-.25.49-.36.74a14.09,14.09,0,0,0-.55,1.49,19.79,19.79,0,0,0-.62,2.7,17.37,17.37,0,0,0-.25,2.68l.78-2.55.4-1.22c.14-.43.31-.88.48-1.34s.38-.92.59-1.38c.11-.23.22-.46.35-.68l.09-.17,0,0,0,0,.05-.08.21-.34a7.67,7.67,0,0,1,.91-1.16,3.88,3.88,0,0,1,1.1-.82,2,2,0,0,1,1.16-.19,1.69,1.69,0,0,1,.52.18l0,0,.07,0,.13.09a2.34,2.34,0,0,1,.18.16,1.64,1.64,0,0,1,.43.84,1.77,1.77,0,0,1,0,.77,1.42,1.42,0,0,1-.22.47,1.34,1.34,0,0,1-.13.14l.17-.1a1.33,1.33,0,0,0,.36-.43,1.84,1.84,0,0,0,.22-.87A1.93,1.93,0,0,0,125.33,95.21Z"/><path class="cls-2" d="M123.34,100a1.91,1.91,0,0,0-.78-.11,3.36,3.36,0,0,0-1.43.49,4.91,4.91,0,0,0-1.12,1,5.87,5.87,0,0,0-.75,1.2c-.21.4-.36.81-.52,1.19s-.28.75-.39,1.09c-.23.68-.37,1.26-.47,1.66a3.19,3.19,0,0,0-.1.65,1.25,1.25,0,0,1,0-.17c0-.11.08-.26.15-.46.13-.39.36-.94.63-1.59a23.38,23.38,0,0,1,1-2.18,6.11,6.11,0,0,1,.73-1.09,4.43,4.43,0,0,1,1-.86,2.92,2.92,0,0,1,1.22-.44,1.29,1.29,0,0,1,1.07.38,1.86,1.86,0,0,1,.51,1,1.58,1.58,0,0,1-.22,1,1.16,1.16,0,0,1-.3.34.61.61,0,0,1-.38.09,3.18,3.18,0,0,1-.72-.12c-.4-.11-.62-.19-.62-.19a4.74,4.74,0,0,0,.59.28,3.31,3.31,0,0,0,.74.21.81.81,0,0,0,.51-.07,1.3,1.3,0,0,0,.4-.39,1.89,1.89,0,0,0,.34-1.18,2.11,2.11,0,0,0-.55-1.27A1.62,1.62,0,0,0,123.34,100Z"/><path class="cls-2" d="M106.35,98.39c1,1.14,1.88,2.3,2.74,3.4l2.36,3,2.3,2.92-.56-.86c-.37-.54-.88-1.32-1.52-2.23s-1.4-2-2.24-3.09-1.76-2.29-2.7-3.45-1.94-2.27-2.9-3.28-1.9-1.93-2.7-2.7-1.52-1.37-2-1.79-.82-.62-.82-.62.28.24.75.69,1.12,1.11,1.9,1.91,1.65,1.76,2.59,2.79S105.41,97.24,106.35,98.39Z"/><path class="cls-2" d="M111.45,105.28c-.31-.42-.65-.86-1-1.29s-.75-.89-1.18-1.32-.86-.86-1.33-1.27l-.18-.15,0,0-.06,0-.09-.07-.36-.27a8.13,8.13,0,0,0-.83-.5,4.49,4.49,0,0,0-1.84-.52,3.15,3.15,0,0,0-1.78.42,2.76,2.76,0,0,0-1.12,1.18,1.85,1.85,0,0,0-.14.38,1.68,1.68,0,0,0,0,.35,2.18,2.18,0,0,0,.09.64,3.77,3.77,0,0,0,.4.9,4.35,4.35,0,0,0,.49.68,6,6,0,0,1-.32-.76,4.33,4.33,0,0,1-.21-.89,1.78,1.78,0,0,1,0-.52s0-.07,0-.12l0-.15a1.65,1.65,0,0,1,.13-.23,2.37,2.37,0,0,1,1-.81,2.63,2.63,0,0,1,1.38-.21,4.06,4.06,0,0,1,1.47.5,7.1,7.1,0,0,1,.69.44l.36.27.09.07,0,0,0,0,.17.14c.45.37.89.77,1.3,1.19l.89.9-.14,0-.11,0-.13,0-.21,0a4.52,4.52,0,0,0-.5,0,3.84,3.84,0,0,0-.51,0,2.45,2.45,0,0,0-1,.37,2,2,0,0,0-.7.81,1.65,1.65,0,0,0-.13,1,1.6,1.6,0,0,0,.14.44,3.32,3.32,0,0,0,.2.33,1.89,1.89,0,0,0,.93.69,1.29,1.29,0,0,0,.42.08,1.82,1.82,0,0,1-.32-.24,2.08,2.08,0,0,1-.55-.8,2.88,2.88,0,0,1-.08-.29,1.2,1.2,0,0,1,0-.28,1.12,1.12,0,0,1,.17-.54A1.54,1.54,0,0,1,108,105a2.89,2.89,0,0,1,.37,0c.13,0,.22,0,.37,0l.22,0h.18a2.82,2.82,0,0,1,.37.07,4.24,4.24,0,0,1,1.25.5l1.08,1.2,2,2.27a23.86,23.86,0,0,0-1.56-2.61C112,106.1,111.77,105.7,111.45,105.28Z"/><path class="cls-2" d="M110.51,86.58l1.62.81-3.35-8.89,3.35,5.43s1.15-3-4-11.66l4.58,6.18c-.2-8.35-.17-16.94.37-23.4,1.52-17.93,5.3-38.38,3.54-46.21S109.75,0,109.75,0A20.17,20.17,0,0,1,111,16.92c-3.54,9.34-6.31,15.15-8.08,20.71s-2.27,13.64-2.27,13.64,4.8,6.06,6.06,8.59a20.82,20.82,0,0,1,1.52,3.54l-6.06-5.81S99.4,67.68,100.41,74s-1.26,13.13-1.26,13.13S108,98,109.75,100.76s4.29,6.57,4.29,6.57-.53-7.17-1-16.66Zm-2.83-54.79c-.25-.25-.46-.45-.62-.59l-.09-.07-.24.48a23.39,23.39,0,0,0-1.64,4c-.23.67-.38,1.35-.57,2s-.33,1.3-.45,1.94c-.27,1.27-.49,2.48-.66,3.6-.34,2.24-.55,4.12-.67,5.44s-.16,2.07-.16,2.07,0-.76.07-2.08.2-3.21.49-5.47c.14-1.13.34-2.35.58-3.63.11-.64.27-1.29.42-2s.33-1.35.56-2a23.84,23.84,0,0,1,1.64-4.09c.68-1.33,1.33-2.68,2-4.05,1.29-2.73,2.49-5.51,3.5-8.15.49-1.33,1-2.61,1.31-3.86a11.43,11.43,0,0,0,.39-1.83,11.56,11.56,0,0,0,0-1.74,30.38,30.38,0,0,0-.33-3.07c-.14-.91-.3-1.7-.43-2.35-.27-1.3-.46-2-.46-2s.23.72.55,2c.16.64.34,1.43.51,2.34a25.32,25.32,0,0,1,.42,3.08,11.89,11.89,0,0,1,0,1.79,11.75,11.75,0,0,1-.35,1.88c-.33,1.27-.76,2.58-1.26,3.91-1,2.67-2.18,5.46-3.46,8.21-.24.5-.48,1-.72,1.48l.15.13c.09.09.21.21.35.37a9.49,9.49,0,0,1,.9,1.21,12.43,12.43,0,0,1,.72,1.31c.18.37.28.61.28.61s-.13-.24-.35-.58a12.31,12.31,0,0,0-.85-1.2,9.18,9.18,0,0,0-1-1.06,4.85,4.85,0,0,0-.43-.35l-.62,1.22.18.17c.16.15.37.37.61.65a17,17,0,0,1,1.56,2.16A23.1,23.1,0,0,1,110.8,36c.31.65.49,1.1.49,1.1s-.21-.43-.56-1.06a22.94,22.94,0,0,0-1.39-2.24A16.72,16.72,0,0,0,107.68,31.78Z"/></g></g></g></svg>